# xmcd
#
# Track frame offsets:
#	150
#	16265
#	29375
#	49425
#	60975
#	77887
#	91162
#	102095
#	111755
#	121502
#	136285
#	151170
#	160837
#	172920
#	191087
#	203975
#	217667
#	232597
#	246212
#	259125
#
# Disc length: 3648 seconds
#
# Revision: 0
# Processed by: cddbd v1.5.2PL0 Copyright (c) Steve Scherf et al.
# Submitted via: dBpowerAMP V4.0
#
DISCID=f40e3e14
DTITLE=Various Artist - Country Collection Vol 1 CD 2
DYEAR=1900
DGENRE=Country
TTITLE0=Kenny Rogers - Lucille
TTITLE1=Lynn Anderson - Rose Garden
TTITLE2=Marty Robbins - El Paso
TTITLE3=Don Gibson - Oh Lonesome Me
TTITLE4=Johnny Cash - A Boy Names Sue
TTITLE5=Tanya Tucker - The Man That Turned My Mama On
TTITLE6=Charley Pride - Mississippi Cotton Pickin' Delta Town
TTITLE7=Tom T Hall - I Love
TTITLE8=Ned Miller - From A Jack To A King
TTITLE9=Jeanne Pruett - Satin Sheets
TTITLE10=John Denver - Thank God I'm A Country Boy
TTITLE11=George Jones - The Race Is On
TTITLE12=Skeeter Davis - The End Of The World
TTITLE13=Don Williams - I Believe In You
TTITLE14=Mickey - A Room Full Of Roses
TTITLE15=Loretta Lynn - Coal Miners Daughter
TTITLE16=Waylon Jennings - Luckenbach Texas
TTITLE17=Kenny Dale - Shame Shame On Me
TTITLE18=Claude King - Wolverton Mountain
TTITLE19=Kenny Rogers and Dottie West - Another Somebody Done Somebody Wrong Song
EXTD=
EXTT0=
EXTT1=
EXTT2=
EXTT3=
EXTT4=
EXTT5=
EXTT6=
EXTT7=
EXTT8=
EXTT9=
EXTT10=
EXTT11=
EXTT12=
EXTT13=
EXTT14=
EXTT15=
EXTT16=
EXTT17=
EXTT18=
EXTT19=
PLAYORDER=
